<?xml version="1.0" encoding="utf-8"?>
<!-- Generator: Adobe Illustrator 24.0.1, SVG Export Plug-In . SVG Version: 6.00 Build 0)  -->
<svg version="1.1" id="レイヤー_1" xmlns="http://www.w3.org/2000/svg" xmlns:xlink="http://www.w3.org/1999/xlink" x="0px"
	 y="0px" viewBox="0 0 1038.73 150.78" style="enable-background:new 0 0 1038.73 150.78;" xml:space="preserve">
<style type="text/css">
	.st0{fill:none;}
	.st1{fill:#00ACC1;}
	.st2{fill:#333333;}
</style>
<g>
	<rect x="-80.63" y="-76.83" class="st0" width="1200" height="305.55"/>
	<g>
		<g>
			<g>
				<g>
					<polygon class="st1" points="72.14,148.09 0,148.09 0,3.8 144.28,3.8 144.28,75.95 					"/>
				</g>
			</g>
		</g>
	</g>
	<g>
		<rect x="436.51" y="3.8" class="st2" width="26.88" height="144.28"/>
		<path class="st2" d="M571.3,65.04c-11.34-4.57-24.05-12.07-24.05-25.8c0-9.92,6.85-19.35,19.75-19.35
			c12.91,0,20.16,10.21,20.16,25.26h26.88C614.04,17.58,594.26,0,567.01,0s-45.96,17.78-45.96,40.32
			c0,18.73,10.69,31.58,39.35,43.08c20.57,8.25,27.44,17.64,27.44,28.28c0,11.52-7.92,19.49-20.69,19.49
			c-15.39,0-23.92-9.01-23.92-26.61h-26.07c0,25.94,19.48,46.23,49.59,46.23c30.91,0,47.44-17.68,47.44-40.45
			C614.16,91.38,606.25,79.12,571.3,65.04z"/>
		<path class="st2" d="M708.69,0c-36.31,0-53.75,24.23-53.75,66.25V84.8c0,38.5,12.75,65.98,54.02,65.98
			c41.07,0,53.62-27.39,53.62-65.98V66.25C762.58,24.23,746.12,0,708.69,0z M735.7,84.79c0,28.3-7.94,45.42-26.74,45.42
			s-27.01-17.03-27.01-45.42V66.24c0-33.78,11.39-45.29,26.74-45.29s27.01,11.5,27.01,45.29V84.79z"/>
		<path class="st2" d="M855.84,20.96c16.46,0,22.84,13.54,22.84,33.06h25.26C903.94,20.62,886.17,0,856.1,0
			c-33.34,0-53.22,24.25-53.22,65.58V85.6c0,41.66,20.35,65.18,53.35,65.18c28.99,0,47.71-22.73,47.71-49.72h-25.26
			c0,18.79-10.01,29.16-22.84,29.16c-18.56,0-25.94-14.32-25.94-44.62V65.58C829.91,30.55,840.59,20.96,855.84,20.96z"/>
		<path class="st2" d="M992.78,0c-24.99,0-48.51,16.8-48.51,43.94h27.01c0-13.54,6.67-23.52,19.75-23.52
			c14.82,0,20.69,10.79,20.69,28.22v14.92h-18.68c-28.48,0-51.33,12.74-51.33,44.61c0,25.67,13.28,42.6,37.49,42.6
			c12.69,0,23.64-7.59,32.92-20.96l3.63,18.28h22.98V48.92C1038.74,14.84,1019.23,0,992.78,0z M1011.73,110.86
			c-4.48,9.08-11.89,18.95-26.34,18.95c-10.75,0-16.8-7.67-16.8-21.77c0-16.4,8.89-27.55,24.05-27.55h19.08v30.37H1011.73z"/>
		<polygon class="st2" points="297.12,71.85 254.88,3.8 224.92,3.8 224.92,148.09 251.93,148.09 251.93,45.11 284.8,98.45 
			309.43,98.45 342.3,45.11 342.3,148.09 369.31,148.09 369.31,3.8 339.35,3.8 		"/>
	</g>
</g>
</svg>